# xmcd
#
# Track frame offsets: 
#        150
#        19650
#        40128
#        54278
#        71607
#        88869
#        115062
#        133005
#        155833
#        177006
#        198933
#        228579
#
# Disc length: 3332 seconds
#
# Revision: 0
# Processed by: cddbd v1.5.2PL0 Copyright (c) Steve Scherf et al.
# Submitted via: ExactAudioCopyFreeDBPlugin 1.0
#
DISCID=9c0d020c
DTITLE=Double Vision - Electric Wood
DYEAR=2016
DGENRE=Blues Rock
TTITLE0=Devil Got His Hands On It
TTITLE1=Feet Of Kolossus
TTITLE2=1989
TTITLE3=Not Guilty
TTITLE4=Wild Child
TTITLE5=Beggin' For Love
TTITLE6=What's Your Vision?
TTITLE7=Redemption Blues
TTITLE8=Free Like A Hawk
TTITLE9=Shadow On My Shoulder
TTITLE10=Ready To Roll
TTITLE11=So lange her
EXTD=
EXTT0=
EXTT1=
EXTT2=
EXTT3=
EXTT4=
EXTT5=
EXTT6=
EXTT7=
EXTT8=
EXTT9=
EXTT10=
EXTT11=
PLAYORDER=
